<svg version="1.2" xmlns="http://www.w3.org/2000/svg" viewBox="0 0 210 200" width="210" height="200">
	<title>cow</title>
	<style>
		.s0 { fill: #cec09f } 
		.s1 { fill: #775c60 } 
		.s2 { fill: #ce6f74 } 
		.s3 { fill: #ede8d6 } 
		.s4 { fill: #ddd4ba } 
		.s5 { fill: #dd838c } 
		.s6 { fill: #82484c } 
		.s7 { fill: #6b3b40 } 
	</style>
	<g id="&lt;Group&gt;">
		<g id="&lt;Group&gt;">
			<path id="&lt;Path&gt;" class="s0" d="m57.4 60.2c3.8-1.7 21.5 17.4 21.5 30.7 0 13.3-42.2 45.7-62.9 58.3 0 0-5.1 8.4-4.3 28.7l-6.9-2.8c0 0 6.5-35.1 6.2-44-0.2-8.9 8.4-8.4 8.4-8.4 0 0-1.5-44.2 38-62.5z"/>
			<path id="&lt;Path&gt;" class="s1" d="m0.4 176.1l6.8-6.9 4.5 8.7-5.9 10.2c0 0-6.4-5.9-5.4-12z"/>
		</g>
		<path id="&lt;Path&gt;" class="s0" d="m160.4 116.4c0.4 20.6-13.2 28.8-13.2 28.8l-10.6 19.3-9.2 14.4-11.5 10c-2.8-3.7-3.8-10.9-3.8-10.9l11.2-4 11.9-18.6c0 0-1.9-24.9 6.5-47.9 5.4-14.7 18.4-3.8 18.7 8.9z"/>
		<path id="&lt;Path&gt;" class="s2" d="m72.4 156.9c-9.2-0.5-27.5-7.4-30.4-27.8l50 10.5c0 0-10.4 17.7-19.6 17.3z"/>
		<path id="&lt;Path&gt;" class="s3" d="m71.1 65.8c12 4.5 39.4-5.1 61.9 2.1 22.4 7.3 38.6-15.9 38.6-15.9l8.1 24.6c-15.3 15.9-16.6 58.4-16.6 58.4-2.8 5.3-21.1 18.8-21.1 18.8-10.9-8.3-106.8-16.7-106.8-16.7 0 0-14.3-38.2 11.2-78 3.5-5.5 12.7 2.3 24.7 6.7z"/>
		<g id="&lt;Group&gt;">
			<path id="&lt;Path&gt;" class="s3" d="m40.3 59.6c-13.4-8.6-8.9-21.8-6.1-30 0.5-1.7 1.1-3.2 1.4-4.6 0.2-0.8 0.4-1.8 0-2.4-0.5-0.8-2.1-1.1-3.9-1.5-3.5-0.7-8.4-1.7-10.2-7.4l3.1-1c1.3 3.9 4.4 4.5 7.7 5.2 2.5 0.5 4.8 1 6.1 2.9 0.8 1.3 0.9 2.9 0.4 5-0.4 1.5-0.9 3.1-1.5 4.8-3.4 9.8-7.5 21.9 10.3 29l-1.2 3q-3.5-1.4-6.1-3z"/>
		</g>
		<path id="&lt;Path&gt;" class="s4" d="m142 153.8c-10.9-8.3-106.8-16.7-106.8-16.7 0 0-12.4-33 6.4-69.7-1.7 20.9 7.1 39.4 25.4 47.8 28.1 12.8 67.8-3.2 88.7-35.8 4.2-6.7 7.4-13.5 9.4-20.3 4.1-3.8 6.5-7.1 6.5-7.1l8.1 24.6c-15.3 15.9-16.6 58.4-16.6 58.4-2.8 5.3-21.1 18.8-21.1 18.8z"/>
		<path id="&lt;Path&gt;" class="s4" d="m37.1 137.7c-6.5-4.1-4.2-21.2 5.1-38.1 9.3-16.8 22-27.2 28.5-23.1 6.4 4.2 4.1 21.2-5.1 38.1-9.3 16.9-22.1 27.2-28.5 23.1z"/>
		<path id="&lt;Path&gt;" class="s3" d="m42.3 59.1c3.2-3 27.6 7.3 32.2 19.3 4.6 11.9-26.3 57.3-42.6 76.7 0 0-2.2 9.5 5.7 27.4l-7.8 0.2c0 0-5.9-34.1-9.2-42-3.3-7.9 5.4-10.7 5.4-10.7 0 0-16.9-39.2 16.3-70.9z"/>
		<path id="&lt;Path&gt;" class="s1" d="m24.5 186.1l4.4-8.8 8.7 5.2-3.5 12.3c0 0-8.5-2.8-9.6-8.7z"/>
		<path id="&lt;Path&gt;" class="s5" d="m56.7 161.9c-2.7-1.1 1.1-5.9 1.7-12.1l1.7 1.9c0 0-0.6 11.2-3.4 10.2z"/>
		<path id="&lt;Path&gt;" class="s5" d="m64.5 164.1c-2.8-1 1-5.8 1.6-12l1.7 1.8c0 0-0.6 11.3-3.3 10.2z"/>
		<path id="&lt;Path&gt;" class="s5" d="m75.5 162.5c-3-0.1-0.9-5.9-2.4-11.9l2.3 1.2c0 0 3 10.8 0.1 10.7z"/>
		<path id="&lt;Path&gt;" class="s5" d="m55.2 150.7c0.8-0.6 1.5-1.1 2.3-1.5 5.8-2.4 16.7-3.8 26.6 0.9-3.5 3.7-7.7 6.9-11.7 6.8-4.5-0.2-11.2-2-17.2-6.2z"/>
		<path id="&lt;Path&gt;" class="s0" d="m166.3 108.1c-2.4-8.6-3.7-19.8-3.4-32.1 0.2-4.8 0.5-9.3 1.1-13.6 0.4-1.1 0.8-2.2 1.1-3.3 4.1-3.8 6.5-7.1 6.5-7.1l8.1 24.6c-6.9 7.2-11 19.8-13.4 31.5z"/>
		<path id="&lt;Path&gt;" class="s1" d="m178.3 49.8l-7 2.9c-4.5-13.2 5.9-19.8 11.6-18.7 0 0-9.7 7.6-4.6 15.8z"/>
		<path id="&lt;Path&gt;" class="s1" d="m194.3 42.2c5.9 1.9 11.9 12.9 0.5 22l-4.9-6.1c12.1-3.3 4.4-15.9 4.4-15.9z"/>
		<path id="&lt;Path&gt;" class="s3" d="m198.2 65.8c-4.7 6.9-3.8 23.1-3.8 23.1 0 0-10.9 15.6-18.9 0.4-8.1-15.2-11.1-31.9-3.3-41.4 4.4-5.3 30.8 10.9 26 17.9z"/>
		<path id="&lt;Path&gt;" class="s3" d="m168.9 58.7c-5.6-3.6-11.7-9.7-9.6-13.4 1.8-3 11.5 5.8 11.6 8.5 0.1 3-2 4.9-2 4.9z"/>
		<path id="&lt;Path&gt;" class="s2" d="m168.7 57.3c-3.7-2.3-7.7-6.4-6.3-8.7 1.2-2 7.5 3.7 7.6 5.5 0.1 2-1.3 3.2-1.3 3.2z"/>
		<path id="&lt;Path&gt;" class="s3" d="m193.9 64.9c5.7-3.4 13.7-6.2 15.5-3.3 1.6 2.4-10.4 7.3-12.6 6.5-2.4-0.9-2.9-3.2-2.9-3.2z"/>
		<path id="&lt;Path&gt;" class="s2" d="m198.4 64.1c3.1-1.9 6.2-2.8 7.2-1.2 0.9 1.3-5.8 4-7 3.6-1.4-0.5-0.2-2.4-0.2-2.4z"/>
		<path id="&lt;Path&gt;" class="s6" d="m173 92.7c-0.6-5.6 5.5-10.2 7.5-9.8 1.9 0.4 12.4 2.4 13.9 6.1 1.6 3.6-0.4 9.3-4.7 11.5-4.3 2.2-16.1-2.4-16.7-7.8z"/>
		<path id="&lt;Path&gt;" class="s4" d="m122.3 135.8c-5-26 2.7-39.5 2.7-39.5l13.1 28.7z"/>
		<path id="&lt;Path&gt;" class="s3" d="m152 79.5c3.4 14.9-4.7 57.5-4.7 57.5l0.2 26-1.3 20.2-6.2 16.7c-5.2-2.6-10.6-9.8-10.6-9.8l9.6-10 2.7-16.3c0 0-13-31.2-17.7-60.1-3.1-18.5 24.7-39.1 28-24.2z"/>
		<path id="&lt;Path&gt;" class="s1" d="m143.8 181.8q1.2 0.8 2.2 1.9l-6 16.2c-5.2-2.6-10.6-9.8-10.6-9.8l9.5-9.9c1.7 0.1 3.4 0.7 4.9 1.6z"/>
		<g id="&lt;Group&gt;">
			<path id="&lt;Path&gt;" class="s4" d="m139.2 178.8l2.5-15c0 0-13-31.2-17.7-60.1-0.6-3.6 0-6.7 1.5-9.3-0.5 7.6 0.2 16.7 2.2 26.4 4 18.5 11.9 33.8 19.8 39.9v2.3l-0.6 9.7c-2.4 1.4-5 3.5-7.7 6.1z"/>
		</g>
		<path id="&lt;Path&gt;" class="s7" d="m189.7 100.5c-4.3 2.2-16.1-2.4-16.7-7.8-0.3-2.9 1.2-5.6 3-7.4-0.1 0.8-0.2 1.5-0.1 2.3 0.6 5.4 12.4 10.1 16.7 7.8 0.8-0.4 1.5-0.9 2.1-1.5-0.6 2.6-2.4 5.2-5 6.6z"/>
		<path id="&lt;Path&gt;" class="s7" d="m175.9 93.1c-0.8-0.5-0.4-2.5 0.8-4.5 1.3-2 3-3.2 3.8-2.7 0.7 0.5 0.4 2.5-0.9 4.5-1.3 2-3 3.2-3.7 2.7z"/>
		<path id="&lt;Path&gt;" class="s7" d="m189.7 97.5c-0.6-0.4-0.4-2.3 0.5-4.4 0.9-2 2.1-3.3 2.7-2.9 0.7 0.4 0.4 2.3-0.5 4.4-0.9 2-2.1 3.3-2.7 2.9z"/>
		<path id="&lt;Path&gt;" class="s1" d="m174.1 66.3h-0.1c3.5-3.8 6.9-3 6.4 1.7-0.7-3.1-3.5-3.8-6.3-1.7z"/>
		<path id="&lt;Path&gt;" class="s1" d="m188.5 70.8c3.3-3.6 6.2-2 5.5 3.2-0.4-3.7-2.8-5.1-5.5-3.2z"/>
		<path id="&lt;Path&gt;" class="s1" d="m25.5 17.2c-14.8-3-6.6-5.8-8.1-10.7-1.6-4.9-3.3-4.3-3.3-4.3 0 0 6.3-4.5 9.7 2.8 3.5 7.2 1.7 12.2 1.7 12.2z"/>
		<path id="&lt;Path&gt;" class="s1" d="m115.9 188.9c-2.8-3.7-3.8-10.9-3.8-10.9l11.2-4 0.3-0.4c1.6 1.5 2.7 3.5 3.2 5.8z"/>
		<g id="&lt;Group&gt;" style="opacity: .5">
			<path id="&lt;Path&gt;" class="s1" d="m127.5 124.3c-0.2 0.3-0.5 0.4-0.9 0.5q-3.4 0.9-7 1.3l0.9-0.8c-3.2-1.1-6.2-2.5-9.1-4.2-2.5-1.6-5-3.5-5.9-6.3-1.3-4.4 1.6-8.7 4.5-12.3 1.1-1.4 2.3-2.9 4.1-3.2 0.8-0.2 1.6-0.1 2.5 0 2.3 0.2 4.6-0.3 6.7-1.3 1-0.4 1.9-0.9 3-0.9 1 0 1.9 0.5 2.6 1.1 2.4 1.9 4.2 4.9 4.1 7.9-0.1 2.8-1.5 5.3-3.2 7.5-1 1.2-2.1 2.4-2.8 3.8-0.7 1.4-0.9 3.2-0.1 4.6 0.4 0.7 1.2 1.7 0.6 2.3z"/>
			<path id="&lt;Path&gt;" class="s1" d="m128.2 84.1c-3.5-0.8-6.7-2.5-9.4-4.9-1.2-1.1-2.3-2.5-2.5-4.2-0.1-0.9 0.2-1.9 0.5-2.8 0.6-1.6 1.4-3.1 2.4-4.4 0.5-0.7 1-1.2 1.7-1.5 0.6-0.1 1.2 0 1.8 0.1 4.4 1.2 7.3 5.4 9.4 9.5 1.1 2.2 2 4.9 0.5 6.8-1 1.3-2.8 1.6-4.4 1.8z"/>
			<path id="&lt;Path&gt;" class="s1" d="m100.7 83.7l-1.2-1.2c-3.9 1.4-8.3 1.3-12.2-0.1-2.6-1-5.2-2.9-5.4-5.7-0.2-2.6 1.9-4.9 4.3-5.7 2.5-0.7 5.2-0.3 7.6 0.5 1.1 0.3 2.2 0.7 3.1 1.5 1.1 1 1.7 2.4 2.2 3.9q1.2 3.3 1.6 6.8z"/>
			<path id="&lt;Path&gt;" class="s1" d="m22.5 113.5q-0.2 0.1-0.3 0.2c-1.3-11-0.3-26.1 9-41.1 4 0.5 7.8 1.5 10.8 4 4.1 3.5 5.8 8.9 6.7 14.2 0.3 1.9 0.5 4-0.6 5.6-1.2 1.5-3.2 1.9-5 2.5-8 2.6-13.5 10-20.6 14.6z"/>
			<path id="&lt;Path&gt;" class="s1" d="m60.8 75.8c0.1 1-0.4 2-1.2 2.4-1 0.5-2.3-0.1-3-0.9-0.6-0.9-0.9-2-1.2-3.1l-0.9-0.4c0.1-1 1.1-1.8 2.2-1.8 1.1 0 2 0.6 2.8 1.4 0.7 0.6 1.2 1.5 1.3 2.4z"/>
			<path id="&lt;Path&gt;" class="s1" d="m90.6 142q-1.4 0.4-2.8 0.8c-9.3-1.2-18.6-2.3-26.8-3.1 0.2-0.5 0.4-1 0.6-1.5 0.9-2.7 1.3-5.5 2.3-8.2 1.2-3.6 3.3-6.8 5.4-10 0.5-0.6 0.9-1.3 1.6-1.6 0.8-0.4 1.7-0.3 2.6-0.2 6 1 12.4 3 15.8 8.1 2.3 3.5 2.8 7.9 3.3 12.1 0.1 1.1 0.1 2.3-0.7 3-0.3 0.4-0.8 0.5-1.3 0.6z"/>
			<path id="&lt;Path&gt;" class="s1" d="m164.6 118.5c-1.3 9.4-1.5 16.5-1.5 16.5-1 1.9-4.1 4.9-7.6 8-3.1-1.2-5.5-4-6.6-7.1-1.1-3.4-0.9-7.2 0.2-10.6 0.4-1.3 0.9-2.6 1.9-3.6 0.9-0.8 2.1-1.3 3.3-1.7 3.3-1 6.8-1.5 10.3-1.5z"/>
			<path id="&lt;Path&gt;" class="s1" d="m149.2 77.3c-0.4-2.9-0.6-5.8-0.9-8.8 2.4-0.5 4.5-1.4 6.6-2.3 1.3 2.5 2.1 5.2 2.2 8.1 0 2.3-0.4 4.8-2 6.5-0.7 0.8-1.8 1.3-2.8 1.2-1-0.1-1.8-0.9-2.3-1.8-0.5-0.9-0.6-1.9-0.8-2.9z"/>
			<path id="&lt;Path&gt;" class="s1" d="m23.2 149.6c-0.9-3.9-1.8-7.1-2.6-8.9-2.3-5.5 1.3-8.6 3.6-9.9q0.1 0.1 0.2 0.1c1.6 1 3.1 2.3 3.9 4 1.4 2.9 0.2 6.5-1.3 9.3-1.1 2-2.3 3.8-3.8 5.4z"/>
		</g>
	</g>
</svg>