<svg version="1.2" xmlns="http://www.w3.org/2000/svg" viewBox="0 0 2000 1200" width="2000" height="1200">
	<title>ground-svg</title>
	<style>
		.s0 { fill: #4f6682 } 
		.s1 { fill: #719cce } 
		.s2 { fill: #84b1e5 } 
		.s3 { fill: #96c1ed } 
		.s4 { fill: #79a9d8 } 
		.s5 { fill: #54ccc5 } 
		.s6 { fill: #383d39 } 
		.s7 { fill: #8e757b } 
		.s8 { fill: #5676a0 } 
		.s9 { fill: #72595e } 
		.s10 { fill: #543f44 } 
		.s11 { fill: #45773d } 
		.s12 { fill: #ededed } 
		.s13 { fill: #aab5ac } 
		.s14 { fill: #ce9197 } 
		.s15 { fill: #dda0aa } 
		.s16 { fill: #a3646b } 
		.s17 { fill: #4d514e } 
		.s18 { fill: #5785bc } 
		.s19 { fill: #5a635d } 
		.s20 { fill: #92a0a0 } 
		.s21 { fill: #414742 } 
		.s22 { fill: #415770 } 
		.s23 { fill: #678ebc } 
		.s24 { fill: #313532 } 
		.s25 { fill: #666b67 } 
		.s26 { fill: #5b605c } 
	</style>
	<g id="&lt;Group&gt;">
		<g id="&lt;Group&gt;">
			<g id="&lt;Group&gt;">
				<path id="&lt;Path&gt;" class="s0" d="m991.9 997.6c-0.4 3.9-2.1 7.1-3.7 10l-4 0.3q-3.3-2.9-6.2-6.7c-0.4-0.5-0.7-1-0.9-1.7-0.1-0.8 0.1-1.8 0.3-2.7 2.2-9.7 5.3-18.9 9.1-27.2 2.1 6.2 3.8 12.9 5 19.9 0.4 2.6 0.8 5.4 0.4 8.1z"/>
				<path id="&lt;Path&gt;" class="s0" d="m973.1 966.2c1 3 0.5 6.3 0.2 9.4-1.1 9.6-0.9 19.3-0.8 28.9l-1.8 2.4c-3-0.6-5.9-1.9-8.4-3.6-0.6-0.4-1.1-0.8-1.4-1.4-0.6-1.1-0.3-2.3 0-3.5 1.9-7.5 2.9-15.1 3.1-22.8 0.1-4.4-0.1-8.9 0.9-13.2 0.1-0.5 0.2-0.9 0.5-1.2 0.3-0.2 0.6-0.2 0.9-0.3 3.1-0.4 5.9 2.3 6.8 5.3z"/>
				<path id="&lt;Path&gt;" class="s0" d="m957.5 997.1c0.7 1.7 1.4 3.6 0.9 5.4-0.8 2.8-4 4-6.7 4.8l-5.5-2.6c-1.5-2.8-1.7-6.2-1-9.3 0.6-3.1 2-6 3.4-8.9 0.2-0.4 0.5-0.8 0.9-0.9 0.5-0.2 1 0.3 1.3 0.7 2.7 3.3 4.9 7 6.7 10.8z"/>
				<path id="&lt;Path&gt;" class="s0" d="m941.5 975.2c2.9 9.4 1 20.3-4.9 28.3l-0.7 2.2c-2.5-4.7-3.1-10.3-3.3-15.6-0.3-10 0.6-20.1 2.8-29.9 0.6-2.3 1.3-4.8 3.2-6.1 1.4 0.7 1.7 2.6 1.7 4.1q0.2 4.9 0.1 9.7c0 1.4-0.1 2.8 0.2 4.1 0.2 1.1 0.6 2.1 0.9 3.2z"/>
				<path id="&lt;Path&gt;" class="s0" d="m926.5 986.8c2.4 5.8 2.7 12.5 0.8 18.5l-5.5-0.3c-2.7-5.7-3-12.7-0.8-18.7 0.4-0.9 0.9-1.9 1.8-2.3 1.6-0.6 3.1 1.2 3.7 2.8z"/>
				<path id="&lt;Path&gt;" class="s0" d="m917.2 975.9c1.2 10.2-4.7 19.8-4.2 30.1l-0.4 0.3c-0.8-2.9-2.9-5.4-4.3-8.2-2.9-6.2-2-13.3-0.1-19.7 0.3-1.1 0.7-2.3 1.6-3.1 1.5-1.3 3.7-1.1 5.6-0.9 0.6 0 1.2 0.1 1.5 0.6 0.2 0.2 0.2 0.6 0.3 0.9z"/>
				<path id="&lt;Path&gt;" class="s0" d="m900.6 993.2c1.3 3.4 1.5 7.2 0.5 10.7l-2.4 0.3c-2.1-0.9-3.3-3.3-3.1-5.6 0.1-2.4 1.5-4.5 3.3-5.9 0.3-0.2 0.6-0.4 0.9-0.3 0.4 0 0.7 0.5 0.8 0.8z"/>
				<path id="&lt;Path&gt;" class="s0" d="m888.9 1005.8l-4.1-1.1c-2.1 0-4.2-1.2-6-3.4-0.7-0.8-1.3-1.9-1.4-3.5 0-1.3 0.4-2.5 0.9-3.5 2-3.6 5.1-4.4 7.4-1.8 2.3 2.5 3.7 8.1 3.2 13.3z"/>
				<path id="&lt;Path&gt;" class="s0" d="m999.6 953.8c5.1 12.7 4.8 26.8 4.5 40.5 0 2.4-0.1 4.9-0.6 7.2-0.4 2.3-1.2 4.4-2.3 6.4l-5 1.1c1.4-15.6-5.1-30.9-3.6-46.4 0.4-3.7 1.4-7.6 4.4-9.9 0.3-0.2 0.7-0.4 1.1-0.4 0.8 0 1.2 0.8 1.5 1.5z"/>
				<path id="&lt;Path&gt;" class="s0" d="m1014.9 1008.3l-4.7-1.8c-1.7-5.2-2-10.9-0.8-16.3 0.4-2.2 1.2-4.5 2.8-6 1.5-1.5 4.1-2 5.7-0.6 1.3 1.1 1.6 3.1 1.8 4.9 0.4 6.9-1.3 14-4.8 19.8z"/>
			</g>
			<g id="&lt;Group&gt;">
				<path id="&lt;Path&gt;" class="s0" d="m271.9 981.6c-0.4 3.9-2.1 7.1-3.7 10l-4 0.3q-3.3-2.9-6.2-6.7c-0.4-0.5-0.7-1-0.9-1.7-0.1-0.8 0.1-1.8 0.3-2.7 2.2-9.7 5.3-18.9 9.1-27.2 2.1 6.2 3.8 12.9 5 19.9 0.4 2.6 0.8 5.4 0.4 8.1z"/>
				<path id="&lt;Path&gt;" class="s0" d="m253.1 950.2c1 3 0.5 6.3 0.2 9.4-1.1 9.6-0.9 19.3-0.8 28.9l-1.8 2.4c-3-0.6-5.9-1.9-8.4-3.6-0.6-0.4-1.1-0.8-1.4-1.4-0.6-1.1-0.3-2.3 0-3.5 1.9-7.5 2.9-15.1 3.1-22.8 0.1-4.4-0.1-8.9 0.9-13.2 0.1-0.5 0.2-0.9 0.5-1.2 0.3-0.2 0.6-0.2 0.9-0.3 3.1-0.4 5.9 2.3 6.8 5.3z"/>
				<path id="&lt;Path&gt;" class="s0" d="m237.5 981.1c0.7 1.7 1.4 3.6 0.9 5.4-0.8 2.8-4 4-6.7 4.8l-5.5-2.6c-1.5-2.8-1.7-6.2-1-9.3 0.6-3.1 2-6 3.4-8.9 0.2-0.4 0.5-0.8 0.9-0.9 0.5-0.2 1 0.3 1.3 0.7 2.7 3.3 4.9 7 6.7 10.8z"/>
				<path id="&lt;Path&gt;" class="s0" d="m221.5 959.2c2.9 9.4 1 20.3-4.9 28.3l-0.7 2.2c-2.5-4.7-3.1-10.3-3.3-15.6-0.3-10 0.6-20.1 2.8-29.9 0.6-2.3 1.3-4.8 3.2-6.1 1.4 0.7 1.7 2.6 1.7 4.1q0.2 4.9 0.1 9.7c0 1.4-0.1 2.8 0.2 4.1 0.2 1.1 0.6 2.1 0.9 3.2z"/>
				<path id="&lt;Path&gt;" class="s0" d="m206.5 970.8c2.4 5.8 2.7 12.5 0.8 18.5l-5.5-0.3c-2.7-5.7-3-12.7-0.8-18.7 0.4-0.9 0.9-1.9 1.8-2.3 1.6-0.6 3.1 1.2 3.7 2.8z"/>
				<path id="&lt;Path&gt;" class="s0" d="m197.2 959.9c1.2 10.2-4.7 19.8-4.2 30.1l-0.4 0.3c-0.8-2.9-2.9-5.4-4.3-8.2-2.9-6.2-2-13.3-0.1-19.7 0.3-1.1 0.7-2.3 1.6-3.1 1.5-1.3 3.7-1.1 5.6-0.9 0.6 0 1.2 0.1 1.5 0.6 0.2 0.2 0.2 0.6 0.3 0.9z"/>
				<path id="&lt;Path&gt;" class="s0" d="m180.6 977.2c1.3 3.4 1.5 7.2 0.5 10.7l-2.4 0.3c-2-0.9-3.3-3.3-3.1-5.6 0.1-2.4 1.5-4.5 3.3-5.9 0.3-0.2 0.6-0.4 0.9-0.3 0.4 0 0.7 0.5 0.8 0.8z"/>
				<path id="&lt;Path&gt;" class="s0" d="m168.9 989.8l-4.1-1.1c-2.1 0-4.2-1.2-6-3.4-0.7-0.8-1.3-1.9-1.4-3.5 0-1.3 0.4-2.5 0.9-3.5 2-3.6 5.1-4.4 7.4-1.8 2.3 2.5 3.7 8.1 3.2 13.3z"/>
				<path id="&lt;Path&gt;" class="s0" d="m279.6 937.8c5.1 12.7 4.8 26.8 4.5 40.5 0 2.4-0.1 4.9-0.6 7.2-0.4 2.3-1.2 4.4-2.3 6.4l-5 1.1c1.4-15.6-5.1-30.9-3.6-46.4 0.4-3.7 1.4-7.6 4.4-9.9 0.3-0.2 0.7-0.4 1.1-0.4 0.8 0 1.2 0.8 1.5 1.5z"/>
				<path id="&lt;Path&gt;" class="s0" d="m294.9 992.3l-4.7-1.8c-1.7-5.2-2-10.9-0.8-16.3 0.4-2.2 1.2-4.5 2.8-6 1.5-1.5 4.1-2 5.7-0.6 1.3 1.1 1.6 3.1 1.8 4.9 0.4 6.9-1.3 14-4.8 19.8z"/>
			</g>
			<path id="&lt;Path&gt;" class="s0" d="m1973.6 1033.3l-26.8-1 0.8-17.1 19.5-6.9 7.3 7.9z"/>
			<path id="&lt;Path&gt;" class="s0" d="m1944.6 1034.6h-24.2l0.7-23 13.3-6.3 11 6.3z"/>
			<path id="&lt;Path&gt;" class="s0" d="m1906.9 1032.6l-43.1 0.4 1.3-13.6 23.6-4 19.5 3.5z"/>
			<path id="&lt;Path&gt;" class="s0" d="m469.6 993.3l-26.8-1 0.8-17.1 19.5-6.9 7.3 7.9z"/>
			<path id="&lt;Path&gt;" class="s0" d="m440.6 994.6h-24.2l0.7-23 13.3-6.3 11 6.3z"/>
			<path id="&lt;Path&gt;" class="s0" d="m402.9 992.6l-43.1 0.4 1.3-13.6 23.6-4 19.5 3.5z"/>
			<path id="&lt;Path&gt;" class="s0" d="m1222.1 1016.6l-15.6 0.3 0.5-21 7.2-5.2 8.4 4.9z"/>
			<g id="&lt;Group&gt;">
				<path id="&lt;Path&gt;" class="s0" d="m1361 1008.3c-0.3 3.1-1.6 5.5-2.9 7.8l-3.1 0.3q-2.6-2.3-4.9-5.3c-0.3-0.3-0.6-0.7-0.7-1.3-0.1-0.7 0.1-1.4 0.2-2.2 1.8-7.6 4.2-14.8 7.2-21.2 1.6 4.8 2.9 10.1 3.9 15.6 0.3 2 0.6 4.2 0.3 6.3z"/>
				<path id="&lt;Path&gt;" class="s0" d="m1346.3 983.7c0.7 2.3 0.4 4.9 0.1 7.3-0.8 7.6-0.7 15.2-0.6 22.8l-1.4 1.8c-2.4-0.5-4.7-1.5-6.7-2.8-0.4-0.3-0.8-0.7-1-1.1-0.5-0.9-0.2-1.9 0-2.8 1.4-5.8 2.3-11.8 2.4-17.9 0.1-3.4 0-7 0.7-10.4 0.1-0.3 0.2-0.6 0.4-0.8 0.2-0.2 0.5-0.3 0.7-0.3 2.5-0.3 4.7 1.8 5.4 4.2z"/>
				<path id="&lt;Path&gt;" class="s0" d="m1334 1007.9c0.6 1.4 1.1 2.9 0.7 4.3-0.6 2.1-3.1 3.1-5.2 3.7l-4.3-2c-1.2-2.2-1.4-4.9-0.9-7.3 0.5-2.5 1.6-4.8 2.7-7 0.2-0.3 0.4-0.7 0.7-0.7 0.4-0.1 0.8 0.2 1.1 0.6 2.1 2.5 3.8 5.4 5.2 8.4z"/>
				<path id="&lt;Path&gt;" class="s0" d="m1321.5 990.7c2.2 7.4 0.8 15.9-3.9 22.2l-0.5 1.7c-2-3.7-2.5-8-2.6-12.2-0.3-7.9 0.5-15.8 2.2-23.5 0.4-1.8 1-3.7 2.5-4.7 1.1 0.5 1.3 2 1.3 3.2q0.1 3.8 0.1 7.6c0 1.1-0.1 2.2 0.1 3.2 0.2 0.9 0.5 1.7 0.8 2.5z"/>
				<path id="&lt;Path&gt;" class="s0" d="m1309.7 999.8c1.9 4.6 2.1 9.8 0.6 14.6l-4.3-0.2c-2.1-4.6-2.3-10-0.6-14.8 0.3-0.7 0.6-1.5 1.4-1.8 1.2-0.5 2.4 1 2.9 2.2z"/>
				<path id="&lt;Path&gt;" class="s0" d="m1302.3 991.3c1 8-3.6 15.5-3.2 23.6l-0.3 0.2c-0.7-2.3-2.3-4.2-3.4-6.4-2.3-4.9-1.6-10.5-0.1-15.4 0.3-1 0.6-1.9 1.3-2.5 1.1-1 2.8-0.9 4.4-0.7 0.4 0 0.9 0.1 1.1 0.4 0.2 0.2 0.2 0.5 0.2 0.8z"/>
				<path id="&lt;Path&gt;" class="s0" d="m1289.3 1004.9c1.1 2.6 1.2 5.6 0.5 8.4l-1.9 0.2c-1.7-0.7-2.6-2.6-2.5-4.4 0.1-1.9 1.2-3.6 2.6-4.7 0.2-0.1 0.5-0.3 0.7-0.2 0.4 0 0.5 0.4 0.6 0.7z"/>
				<path id="&lt;Path&gt;" class="s0" d="m1280.1 1014.7l-3.2-0.8c-1.6 0-3.3-0.9-4.7-2.7-0.5-0.6-1-1.5-1.1-2.7 0-1.1 0.4-2 0.7-2.8 1.6-2.8 4-3.4 5.8-1.4 1.9 1.9 2.9 6.4 2.5 10.4z"/>
				<path id="&lt;Path&gt;" class="s0" d="m1367.1 973.9c4 10 3.8 21.1 3.5 31.8 0 1.9-0.1 3.8-0.4 5.7-0.4 1.7-1 3.4-1.8 5l-4 0.8c1.1-12.2-4-24.2-2.8-36.4 0.3-2.8 1.1-6 3.4-7.7 0.3-0.2 0.6-0.4 0.9-0.4 0.6 0 0.9 0.7 1.2 1.2z"/>
				<path id="&lt;Path&gt;" class="s0" d="m1379.1 1016.7l-3.7-1.4c-1.3-4.1-1.6-8.6-0.7-12.8 0.4-1.7 1-3.5 2.2-4.7 1.3-1.2 3.3-1.6 4.5-0.5 1 0.9 1.3 2.4 1.4 3.8 0.4 5.5-0.9 11-3.7 15.6z"/>
			</g>
			<path id="&lt;Path&gt;" class="s0" d="m1258.7 1013.7l-26.8-1.4 0.8-17 26.8 1.4z"/>
			<path id="&lt;Path&gt;" class="s0" d="m701.5 1006.9l-15.6 0.2 0.5-20.9 7.1-5.3 8.5 5z"/>
			<g id="&lt;Group&gt;">
				<path id="&lt;Path&gt;" class="s0" d="m840.4 998.6c-0.3 3-1.7 5.5-2.9 7.8l-3.1 0.2q-2.6-2.2-4.9-5.2c-0.3-0.4-0.6-0.8-0.7-1.3-0.1-0.7 0.1-1.5 0.2-2.2 1.8-7.6 4.2-14.8 7.2-21.3q2.4 7.4 3.9 15.6c0.3 2.1 0.6 4.2 0.3 6.4z"/>
				<path id="&lt;Path&gt;" class="s0" d="m825.7 973.9c0.7 2.4 0.3 4.9 0.1 7.4-0.8 7.6-0.7 15.2-0.6 22.7l-1.5 1.8c-2.3-0.4-4.6-1.4-6.6-2.8-0.4-0.3-0.8-0.6-1.1-1.1-0.4-0.8-0.2-1.8 0.1-2.7 1.4-5.9 2.2-11.9 2.4-17.9 0.1-3.5-0.1-7 0.7-10.4 0.1-0.3 0.2-0.7 0.4-0.9 0.2-0.1 0.4-0.2 0.7-0.2 2.4-0.3 4.6 1.8 5.4 4.1z"/>
				<path id="&lt;Path&gt;" class="s0" d="m813.4 998.2c0.6 1.3 1.1 2.8 0.7 4.2-0.7 2.2-3.1 3.1-5.2 3.8l-4.4-2.1c-1.2-2.1-1.3-4.8-0.8-7.3 0.5-2.4 1.6-4.7 2.7-7 0.2-0.3 0.4-0.6 0.7-0.7 0.4-0.1 0.8 0.3 1.1 0.6 2 2.6 3.8 5.5 5.2 8.5z"/>
				<path id="&lt;Path&gt;" class="s0" d="m800.8 981c2.3 7.4 0.8 15.9-3.8 22.2l-0.6 1.7c-1.9-3.7-2.4-8-2.5-12.3-0.3-7.8 0.4-15.7 2.2-23.4 0.4-1.8 1-3.7 2.5-4.8 1.1 0.6 1.3 2 1.3 3.3q0.1 3.8 0.1 7.6c0 1.1-0.1 2.1 0.1 3.2 0.2 0.8 0.5 1.7 0.7 2.5z"/>
				<path id="&lt;Path&gt;" class="s0" d="m789.1 990.1c1.8 4.5 2.1 9.8 0.6 14.5l-4.3-0.2c-2.1-4.5-2.4-10-0.6-14.7 0.2-0.7 0.6-1.5 1.3-1.8 1.3-0.5 2.5 0.9 3 2.2z"/>
				<path id="&lt;Path&gt;" class="s0" d="m781.7 981.5c1 8.1-3.6 15.6-3.2 23.6l-0.3 0.3c-0.7-2.3-2.3-4.2-3.4-6.4-2.3-4.9-1.6-10.5-0.1-15.5 0.2-0.9 0.6-1.8 1.3-2.5 1.1-1 2.8-0.8 4.4-0.7 0.4 0.1 0.9 0.2 1.1 0.5 0.2 0.2 0.2 0.5 0.2 0.7z"/>
				<path id="&lt;Path&gt;" class="s0" d="m768.7 995.1c1.1 2.7 1.2 5.7 0.4 8.4l-1.8 0.3c-1.7-0.8-2.6-2.7-2.5-4.5 0.1-1.8 1.2-3.5 2.6-4.6 0.2-0.1 0.5-0.3 0.7-0.2 0.3 0 0.5 0.3 0.6 0.6z"/>
				<path id="&lt;Path&gt;" class="s0" d="m759.5 1005l-3.2-0.9c-1.6 0.1-3.3-0.9-4.7-2.6-0.5-0.7-1-1.5-1.1-2.7 0-1.1 0.3-2.1 0.7-2.8 1.6-2.8 4-3.4 5.8-1.5 1.9 2 2.9 6.4 2.5 10.5z"/>
				<path id="&lt;Path&gt;" class="s0" d="m846.5 964.2c3.9 9.9 3.8 21 3.5 31.8 0 1.9-0.1 3.8-0.5 5.6q-0.4 2.7-1.8 5.1l-4 0.8c1.2-12.2-4-24.2-2.7-36.4 0.3-2.9 1.1-6 3.4-7.7 0.3-0.2 0.6-0.4 0.9-0.4 0.6 0 0.9 0.6 1.2 1.2z"/>
				<path id="&lt;Path&gt;" class="s0" d="m858.5 1007l-3.7-1.5c-1.4-4-1.6-8.5-0.7-12.7 0.4-1.8 1-3.6 2.2-4.8 1.2-1.2 3.2-1.6 4.5-0.4 1 0.9 1.3 2.4 1.4 3.8 0.4 5.4-1 11-3.7 15.6z"/>
			</g>
			<path id="&lt;Path&gt;" class="s0" d="m738.1 1004l-26.8-1.4 0.8-17 26.8 1.4z"/>
		</g>
		<path id="&lt;Path&gt;" class="s1" d="m2000 1137.7l-2000 62.3v-221.3l2000 46.4z"/>
		<g id="&lt;Group&gt;" style="opacity: .6">
			<path id="&lt;Path&gt;" class="s2" d="m237.9 1135.9l-156.5-149.1 268.4 6.4 149.7 142.7z"/>
			<path id="&lt;Path&gt;" class="s2" d="m536.6 1151.9l-156.6-149.1 324.7 5.9 93.5 143.2z"/>
			<path id="&lt;Path&gt;" class="s2" d="m922.6 1043.4l72.8 91.2h-169.4l-72.8-91.2z"/>
			<path id="&lt;Path&gt;" class="s3" d="m1079.4 1015.8l67.9 85.1h-158.1l-68-85.1z"/>
			<path id="&lt;Path&gt;" class="s2" d="m1306.1 1071.8l67.9 85.1h-158.2l-67.9-85.1z"/>
			<path id="&lt;Path&gt;" class="s2" d="m1268.7 1020.7l34.6 42.9h-158.1l-34.7-42.9z"/>
			<path id="&lt;Path&gt;" class="s4" d="m743.3 1036.6l-27.5-34.5 172.7 4.1 24.2 30.4z"/>
			<path id="&lt;Path&gt;" class="s5" d="m99.1 1024h-99.1v-39.2l59.5 1.4z"/>
			<path id="&lt;Path&gt;" class="s2" d="m30.9 1135.9l-30.9-11.5v-93.2h110.1l109.9 104.7z"/>
			<path id="&lt;Path&gt;" class="s2" d="m1914.4 1111l-50.4-81.2 136 3.2v78z"/>
			<path id="&lt;Path&gt;" class="s3" d="m1394.6 1113.7l-93.9-88 256.2 6.2 50.9 81.8z"/>
			<path id="&lt;Path&gt;" class="s1" d="m446.2 1072.3l-303.4-14.8-3.5-8.7 303.5 14.7z"/>
			<path id="&lt;Path&gt;" class="s1" d="m772.9 1095l-315.4-2.9-3.5-8.7 315.4 2.9z"/>
		</g>
		<path id="&lt;Path&gt;" class="s6" d="m1366.6 953.8l-249.3-29.2h237.7z"/>
		<path id="&lt;Path&gt;" class="s6" d="m1856.8 924.6h115.7l-126.4 15.2z"/>
		<path id="&lt;Path&gt;" class="s7" d="m1371.4 1086.3h-20.2v-174.3h20.2z"/>
		<path id="&lt;Path&gt;" class="s8" d="m1984.8 1090.8c-38.3 13.3-75.6 11.2-113.3-0.9 2-11.2 12.2-47.8 41.7-53.8 48.7-10.1 66 40.2 71.6 54.7z"/>
		<path id="&lt;Path&gt;" class="s9" d="m1871.1 1087l-86.9-0.7v-174.3l86.9 0.7z"/>
		<path id="&lt;Path&gt;" class="s10" d="m1802.8 1086.3h-3.8v-174.3h3.8z"/>
		<path id="&lt;Path&gt;" class="s10" d="m1814.8 1086.3h-3.9v-174.3h3.9z"/>
		<path id="&lt;Path&gt;" class="s10" d="m1826.8 1086.3h-3.9v-174.3h3.9z"/>
		<path id="&lt;Path&gt;" class="s11" d="m1838.7 1086.3h-3.8v-174.3h3.8z"/>
		<path id="&lt;Path&gt;" class="s10" d="m1850.7 1086.3h-3.8v-174.3h3.8z"/>
		<path id="&lt;Path&gt;" class="s10" d="m1862.7 1086.3h-3.9v-174.3h3.9z"/>
		<path id="&lt;Path&gt;" class="s7" d="m1791.5 1086.3h-45v-174.3h45z"/>
		<path id="&lt;Path&gt;" class="s9" d="m1371.4 982.8h-20.2v-79.5h20.2z"/>
		<path id="&lt;Path&gt;" class="s9" d="m1791.5 982.8h-45v-79.5h45z"/>
		<path id="&lt;Path&gt;" class="s12" d="m1750.3 1086.3h-378.9v-174.3h378.9z"/>
		<path id="&lt;Path&gt;" class="s13" d="m1750.3 978.4h-378.9v-59.8h378.9z"/>
		<path id="&lt;Path&gt;" class="s14" d="m1746 1078.9h-369.8v-156.1h369.8z"/>
		<path id="&lt;Path&gt;" class="s15" d="m1411.5 1071h-23.1v-79.5h23.1z"/>
		<path id="&lt;Path&gt;" class="s15" d="m1534.5 1071h-23v-79.5h23z"/>
		<path id="&lt;Path&gt;" class="s15" d="m1676.6 1071h-23.1v-79.5h23.1z"/>
		<path id="&lt;Path&gt;" class="s16" d="m1380.2 1078.9h-4v-156.1h4z"/>
		<path id="&lt;Path&gt;" class="s16" d="m1501.3 1078.9h-3.9v-156.1h3.9z"/>
		<path id="&lt;Path&gt;" class="s16" d="m1643.9 1078.9h-3.9v-156.1h3.9z"/>
		<path id="&lt;Path&gt;" class="s16" d="m1746 982.4h-369.8v-64.8h369.8z"/>
		<path id="&lt;Path&gt;" class="s12" d="m1641.2 1081.3h-4.7v-165.8h4.7z"/>
		<path id="&lt;Path&gt;" class="s12" d="m1498.6 1081.3h-4.7v-165.8h4.7z"/>
		<path id="&lt;Path&gt;" class="s13" d="m1641.2 978.7h-4.7v-59.6h4.7z"/>
		<path id="&lt;Path&gt;" class="s13" d="m1498.6 978.7h-4.7v-59.6h4.7z"/>
		<g id="&lt;Group&gt;">
			<path id="&lt;Path&gt;" class="s17" d="m1195 1085.6h-5.5v-168.5h5.5z"/>
			<path id="&lt;Path&gt;" class="s17" d="m1201.1 1089.9h-17.7v-8.6h17.7z"/>
		</g>
		<g id="&lt;Group&gt;">
			<path id="&lt;Path&gt;" class="s6" d="m1319.2 1085.2h-5.5v-168.4h5.5z"/>
			<path id="&lt;Path&gt;" class="s6" d="m1325.3 1089.5h-17.7v-8.6h17.7z"/>
		</g>
		<path id="&lt;Path&gt;" class="s6" d="m1909.9 948.7h-74.3v-4.2h74.3z"/>
		<g id="&lt;Group&gt;">
			<path id="&lt;Path&gt;" class="s6" d="m1912.3 1085.6h-5.5v-168.5h5.5z"/>
			<path id="&lt;Path&gt;" class="s6" d="m1918.4 1089.9h-17.7v-8.6h17.7z"/>
		</g>
		<g id="&lt;Group&gt;">
			<path id="&lt;Path&gt;" class="s6" d="m1838.6 1085.6h-5.5v-168.5h5.5z"/>
			<path id="&lt;Path&gt;" class="s6" d="m1844.7 1089.9h-17.7v-8.6h17.7z"/>
		</g>
		<path id="&lt;Path&gt;" class="s18" d="m2000 1129.5l-2000 14.5v-32.7h2000z"/>
		<path id="&lt;Path&gt;" class="s19" d="m1834.2 1118.8l-691 19v-53.9h691z"/>
		<path id="&lt;Path&gt;" class="s20" d="m1143.2 1092.7v-8.8h741v8.8z"/>
		<path id="&lt;Path&gt;" class="s21" d="m1451.1 1128.3h-51.4v-44.4h51.4z"/>
		<path id="&lt;Path&gt;" class="s19" d="m1514.5 1128.3h-74.8v-44.4h74.8z"/>
		<path id="&lt;Path&gt;" class="s19" d="m1514.5 1127h-96.2v-23.2h96.2z"/>
		<path id="&lt;Path&gt;" class="s22" d="m1981.5 1101.9l-0.1 8.3-38-0.3-5.2-7.7 5.7 3.5-3.1-13.8 9.2 12.3 1.4-11.9 5.2 12.5 7.1-13.8 3 12.2 5.7-6.7 1.7 8.9z"/>
		<path id="&lt;Path&gt;" class="s21" d="m1807 1083.9h143.3v34.9l-143.3 3.1z"/>
		<path id="&lt;Path&gt;" class="s8" d="m32 1134.6l1968-26.7v71.1l-1968-27.8z"/>
		<path id="&lt;Path&gt;" class="s0" d="m2000 1177.5l-2000 11.2v-47.2l2000 24.7z"/>
		<path id="&lt;Path&gt;" class="s23" d="m0 1188.7l2000-17.2v28.5h-2000z"/>
		<path id="&lt;Path&gt;" class="s18" d="m2000 1145.8l-2000 9.5v-21.5h2000z"/>
		<path id="&lt;Path&gt;" class="s6" d="m1972.4 919.1h-216l-63.4-105.6h139.4z"/>
		<g id="&lt;Group&gt;">
			<path id="&lt;Path&gt;" class="s24" d="m1939.6 915.8l-118.2-102.3h1.4l119.3 102.3z"/>
			<path id="&lt;Path&gt;" class="s24" d="m1913.3 915.8l-106.8-102.3h1.4l107.9 102.3z"/>
			<path id="&lt;Path&gt;" class="s24" d="m1887 915.8l-95.5-102.3h1.4l96.5 102.3z"/>
			<path id="&lt;Path&gt;" class="s24" d="m1860.6 915.8l-84-102.3h1.4l85.1 102.3z"/>
			<path id="&lt;Path&gt;" class="s24" d="m1834.3 915.8l-72.7-102.3h1.4l73.8 102.3z"/>
		</g>
		<path id="&lt;Path&gt;" class="s25" d="m1811.6 919.1h-690.4l191.5-105.6h436.1z"/>
		<g id="&lt;Group&gt;">
			<path id="&lt;Path&gt;" class="s6" d="m1784.2 915.8l-53.5-102.3h1.6l54.4 102.3z"/>
			<path id="&lt;Path&gt;" class="s6" d="m1757.9 915.8l-44.5-102.3h1.7l45.3 102.3z"/>
			<path id="&lt;Path&gt;" class="s6" d="m1731.6 915.8l-35.4-102.3h1.6l36.2 102.3z"/>
			<path id="&lt;Path&gt;" class="s6" d="m1705.2 915.8l-26.3-102.3h1.7l27.1 102.3z"/>
			<path id="&lt;Path&gt;" class="s6" d="m1678.9 915.8l-17.2-102.3h1.6l18.1 102.3z"/>
			<path id="&lt;Path&gt;" class="s6" d="m1652.5 915.8l-8-102.3h1.6l8.9 102.3z"/>
			<path id="&lt;Path&gt;" class="s6" d="m1626.2 915.8l1-102.3h1.6l-0.1 102.3z"/>
			<path id="&lt;Path&gt;" class="s6" d="m1599.9 915.8l10.1-102.3h1.6l-9.2 102.3z"/>
			<path id="&lt;Path&gt;" class="s6" d="m1573.5 915.8l19.2-102.3h1.6l-18.3 102.3z"/>
			<path id="&lt;Path&gt;" class="s6" d="m1547.2 915.8l28.3-102.3h1.6l-27.4 102.3z"/>
			<path id="&lt;Path&gt;" class="s6" d="m1520.8 915.8l37.4-102.3h1.6l-36.5 102.3z"/>
			<path id="&lt;Path&gt;" class="s6" d="m1494.5 915.8l46.5-102.3h1.6l-45.6 102.3z"/>
			<path id="&lt;Path&gt;" class="s6" d="m1468.2 915.8l55.5-102.3h1.6l-54.6 102.3z"/>
			<path id="&lt;Path&gt;" class="s6" d="m1441.8 915.8l64.7-102.3h1.6l-63.8 102.3z"/>
			<path id="&lt;Path&gt;" class="s6" d="m1415.5 915.8l73.7-102.3h1.6l-72.8 102.3z"/>
			<path id="&lt;Path&gt;" class="s6" d="m1389.2 915.8l82.8-102.3h1.6l-82 102.3z"/>
			<path id="&lt;Path&gt;" class="s6" d="m1362.8 915.8l91.9-102.3h1.7l-91.1 102.3z"/>
			<path id="&lt;Path&gt;" class="s6" d="m1336.5 915.8l101-102.3h1.6l-100.1 102.3z"/>
			<path id="&lt;Path&gt;" class="s6" d="m1310.1 915.8l110.1-102.3h1.7l-109.3 102.3z"/>
			<path id="&lt;Path&gt;" class="s6" d="m1283.8 915.8l119.2-102.3h1.6l-118.3 102.3z"/>
			<path id="&lt;Path&gt;" class="s6" d="m1257.5 915.8l128.2-102.3h1.7l-127.5 102.3z"/>
			<path id="&lt;Path&gt;" class="s6" d="m1231.1 915.8l137.4-102.3h1.6l-136.5 102.3z"/>
			<path id="&lt;Path&gt;" class="s6" d="m1204.8 915.8l146.4-102.3h1.7l-145.6 102.3z"/>
			<path id="&lt;Path&gt;" class="s6" d="m1178.4 915.8l155.6-102.3h1.6l-154.7 102.3z"/>
			<path id="&lt;Path&gt;" class="s6" d="m1152.1 915.8l164.6-102.3h1.7l-163.8 102.3z"/>
		</g>
		<path id="&lt;Path&gt;" class="s21" d="m1976.4 930.1h-166.6v-9.2h166.6z"/>
		<path id="&lt;Path&gt;" class="s21" d="m1814.8 930.1h-700.6v-9.2h700.6z"/>
		<path id="&lt;Path&gt;" class="s21" d="m1976.4 925.9h-166.6v-9.3h166.6z"/>
		<path id="&lt;Path&gt;" class="s22" d="m1510 1114l490-7.8v17.7z"/>
		<path id="&lt;Path&gt;" class="s26" d="m1814.8 925.9h-700.6v-9.3h700.6z"/>
		<path id="&lt;Path&gt;" class="s18" d="m480.6 1105.8l-0.2 6.7-64.3-0.9-9-6.4 9.7 3-5.5-11.3 15.8 10.2 2.2-9.7 9 10.2 11.8-11 5.3 10 9.6-5.4 3 7.2z"/>
		<path id="&lt;Path&gt;" class="s18" d="m284 1107.9l-0.1 8.9-64.4-1.2-9-8.4 9.8 3.9-5.5-15 15.8 13.6 2.2-12.9 9 13.6 11.8-14.6 5.3 13.2 9.6-7.2 3 9.6z"/>
		<path id="&lt;Path&gt;" class="s23" d="m1345.4 1177.1l-0.2 8.9-36.7-1.6-5.1-8.4 5.5 4-3-15 8.9 13.6 1.4-12.8 5 13.6 6.9-14.6 2.9 13.2 5.6-7.1 1.6 9.7z"/>
		<path id="&lt;Path&gt;" class="s0" d="m1434 1149.2l-0.2 8.3-37.9-0.3-5.3-7.7 5.7 3.5-3.1-13.8 9.2 12.3 1.4-11.9 5.2 12.5 7.1-13.8 3 12.2 5.7-6.7 1.7 8.9z"/>
		<path id="&lt;Path&gt;" class="s8" d="m1715.4 1144.9l-0.2 8.2-38-0.3-5.2-7.7 5.7 3.5-3.1-13.8 9.2 12.4 1.4-12 5.2 12.5 7.1-13.7 3 12.2 5.7-6.8 1.7 8.9z"/>
		<path id="&lt;Path&gt;" class="s8" d="m1735.1 1118.1l-0.2 8.3-37.9-0.3-5.3-7.7 5.7 3.5-3.1-13.8 9.2 12.3 1.4-11.9 5.2 12.5 7.1-13.8 3 12.2 5.8-6.7 1.6 8.9z"/>
		<path id="&lt;Path&gt;" class="s22" d="m1829.4 1105.2l-0.2 8.2-37.9-0.3-5.2-7.7 5.7 3.6-3.1-13.9 9.2 12.4 1.4-11.9 5.2 12.4 7.1-13.7 3 12.2 5.7-6.8 1.7 8.9z"/>
		<path id="&lt;Path&gt;" class="s8" d="m1942.8 1144.1l-0.2 8.3-37.9-0.3-5.2-7.7 5.7 3.5-3.1-13.8 9.2 12.4 1.4-12 5.2 12.5 7.1-13.7 3 12.2 5.7-6.8 1.7 8.9z"/>
		<path id="&lt;Path&gt;" class="s0" d="m325.8 1159.7l-0.2 8.9-64.3-1.3-9.1-8.4 9.8 4-5.5-15 15.8 13.5 2.2-12.8 9 13.5 11.8-14.6 5.3 13.2 9.6-7.1 3 9.6z"/>
		<path id="&lt;Path&gt;" class="s8" d="m374.1 1124.3l-0.3 8.9-64.3-1.6-8.9-8.4 9.7 3.9-5.3-14.9 15.6 13.6 2.4-12.8 8.8 13.5 12.1-14.5 5 13.2 9.8-7.1 2.8 9.7z"/>
	</g>
</svg>