<svg version="1.2" xmlns="http://www.w3.org/2000/svg" viewBox="0 0 2000 1200" width="2000" height="1200">
	<title>sky</title>
	<defs>
		<linearGradient id="g1" x1="2112.9" y1="232.5" x2="1912.1" y2="1784.8" gradientUnits="userSpaceOnUse">
			<stop offset="0" stop-color="#090609"/>
			<stop offset=".6" stop-color="#433d4d"/>
			<stop offset="1" stop-color="#a5a9c9"/>
		</linearGradient>
	</defs>
	<style>
		.s0 { fill: #5c5e84 } 
		.s1 { fill: #494c6f } 
		.s2 { opacity: .6;mix-blend-mode: overlay;fill: url(#g1) } 
	</style>
	<g id="&lt;Group&gt;">
		<g id="&lt;Group&gt;">
			<path id="&lt;Path&gt;" class="s0" d="m2000 1074.2h-2000v-1074.2h2000z"/>
			<path id="&lt;Path&gt;" class="s1" d="m1742.1 824.4c-132.5-9.5-265.6 9.8-395.5 57.2-46.8 17.1-93.9 37.9-141.6 33.3-38.3-3.8-75.5-23.9-112.2-43.9-67.9-37-135.9-74-205.4-99.3-39.3-14.4-79-24.9-118.7-34.9-138.2-34.8-276.9-62.6-415.6-89.2-110-21-241.7-41.3-352.3-39.9-2.7 0 2.7 0.1 0 0.1v-202.3c25.4 2.5 64.3 5.1 89.7 7.7 40.2 4.1 80.8 8.2 119.9 25.7 36.7 16.3 71.6 44.1 108.6 57.9 59.4 22.1 122 7.2 180.7 34.6 41.6 19.5 79.1 59.2 118.6 89.2 44 33.3 90.8 54.8 138.3 63.4 78.6 14.2 160.4-6 234.9 40.5 43.1 26.9 81.1 74.7 123.6 104.6 110.7 78 234.9 25.7 353.2 1.1 90.8-19 182.7-20.9 273.8-5.8z"/>
			<path id="&lt;Path&gt;" class="s1" d="m2000 531c-199.5-334.3-229.7-106.8-436.2-128q-496.6-50.7-993.3-101.5c72.3-30.9 146.4-11.7 219.6 2 179.1 33.5 359 32.9 538.7 32.3 101-0.4 204.5-1.8 299.2-88.5 6.6-6 14.7-21 11.3-36.4q-7.2-11-14.4-22c121.2-19 253.8-19.5 375.1-1.7z"/>
		</g>
		<path id="&lt;Path&gt;" class="s2" d="m2000 0v1074h-2000v-268.7-421.2-103.4-280.7z"/>
	</g>
</svg>