<svg version="1.2" xmlns="http://www.w3.org/2000/svg" viewBox="0 0 161 523" width="161" height="523">
	<title>tree-right-svg</title>
	<style>
		.s0 { fill: #414239 } 
		.s1 { fill: #5676a0 } 
		.s2 { fill: #6286af } 
	</style>
	<g id="&lt;Group&gt;">
		<g id="&lt;Group&gt;">
			<g id="&lt;Group&gt;">
				<path id="&lt;Path&gt;" class="s0" d="m84.9 521.8c0.2-11.6 2.2-23.1 5.3-34.3 11.2-41.1 37.2-80.7 30.7-124.9-0.1-0.8 3-1.4 3.1-0.9 1.7 11.8 1.1 23.8-1.1 35.4-7.8 42.4-34.4 80-34.9 123.9 0 0.9-3.1 1.3-3.1 0.8z"/>
			</g>
			<g id="&lt;Group&gt;">
				<path id="&lt;Path&gt;" class="s0" d="m91.3 481.5c-1.4-9.6-6.5-17.8-12-25.6-4.8-7-9.9-13.8-13.7-21.4-3.9-7.7-6.9-15.8-8.8-24.2-4-16.7-3.9-34.2 0.2-50.8 0.3-1.4 3.5-1.7 3.1-0.2-2.3 9.4-3.4 19.1-3.1 28.7 0.5 17.5 5.3 35 14.1 50.1 8.1 13.9 20.9 26 23.3 42.6 0.2 1.5-2.9 2.3-3.1 0.8z"/>
			</g>
			<g id="&lt;Group&gt;">
				<path id="&lt;Path&gt;" class="s0" d="m106.5 443.3c-4.9-10.5-5.4-22.3-6.3-33.7q-1.5-18-3.1-36c0-1.1 2.5-2.8 2.6-1.8q1.5 18.1 3 36.1c1 11.4 1.5 23.2 6.4 33.7 0.4 0.9-2 2.8-2.6 1.7z"/>
			</g>
			<g id="&lt;Group&gt;">
				<path id="&lt;Path&gt;" class="s0" d="m58.3 407.3c8.4-14.7 14.7-30.4 19.6-46.5 9.2-30 14.4-61.5 17.7-92.6 3.3-31.9 3.9-64.2 1.3-96.2-0.2-1.4 2.9-1.8 3.1-0.2 1.4 18.1 1.9 36.2 1.4 54.3-0.8 32.4-4.7 64.8-11.1 96.6-5.9 29.4-14 58.8-29 85-0.7 1.3-3.8 1.1-3-0.4z"/>
			</g>
			<g id="&lt;Group&gt;">
				<path id="&lt;Path&gt;" class="s0" d="m98.2 466.2c7.9-5.2 14.3-11.2 19.6-17.5 9.9-11.7 17-24.4 22.4-37.3 5.6-13.2 9.1-26.9 10.2-40.9 0-0.6 2.4-0.4 2.4 0.3q-0.9 11.8-4 23.3c-3.8 13.8-9.8 27.1-17.8 39.9-7.4 11.8-16.4 23.4-30.5 32.8-0.7 0.4-3.1 0-2.3-0.6z"/>
			</g>
			<g id="&lt;Group&gt;">
				<path id="&lt;Path&gt;" class="s0" d="m90.4 298.4c-1-15.3-5-30.1-9.7-44.6-8.7-26.6-18.3-52.9-27.4-79.4-4.4-12.7-8.9-25.7-9.6-39.3-0.8-13.6 2.9-26.7 6.7-39.6 0.3-1 3.4-1.5 3.1-0.4-4.5 15.2-8.3 30.1-6.1 46 1.9 13.3 6.6 25.9 11 38.4q6.8 19.8 13.7 39.6c8.8 25.4 19.6 51.3 21.4 78.5 0 1.2-3 1.8-3.1 0.8z"/>
			</g>
		</g>
		<path id="&lt;Path&gt;" class="s1" d="m129.9 78.7q4.2 29.6 8.4 59.3c11.6 83.2 23.3 166.7 22.2 250.8 0 2.4-0.1 5-1.1 7.2-1.4 2.9-4.2 4.8-6.9 6.5q-12.2 7.9-24.5 15.7l-32.1 2c-16.2-3.4-32-8.8-46.9-16.1-8.5-4.2-16.9-9.2-22.8-16.5-5.9-7.3-9-16.4-11.6-25.3-25.5-88.8-10.9-183.5 3.8-274.7 4.7-29 9.4-58 15.8-86.6q24.1 8.9 47.7 19.3c15.9 7 32.7 15.5 40.8 30.8 4.5 8.5 5.9 18.2 7.2 27.6z"/>
		<path id="&lt;Path&gt;" class="s2" d="m81.9 20.3c15.9 7 32.7 15.5 40.8 30.8q2.1 3.9 3.3 8.1-1.8 7.9-4.1 15.9c-24.2 84.5-76.3 144.7-119.9 141.1 2.7-43 9.6-86.2 16.4-128.6 4.7-29 9.4-58 15.8-86.6q24.1 8.9 47.7 19.3z"/>
		<path id="&lt;Path&gt;" class="s1" d="m41.7 147.3c-1.9-9.8 1-17.6 1-17.6 0 0 12.3 15 4.8 25.7 0 0-4 1.5-5.8-8.1z"/>
		<path id="&lt;Path&gt;" class="s1" d="m24.1 185.7c-3.2-7.9-0.7-13.8-0.7-13.8 0 0 15.7 12.7 8.2 20.5 0 0-4.3 1-7.5-6.7z"/>
		<path id="&lt;Path&gt;" class="s1" d="m104.6 69.7c1.9-5.9 6.3-8.1 6.3-8.1 0 0 3.2 14.2-5.1 15.3 0 0-3.1-1.4-1.2-7.2z"/>
		<path id="&lt;Path&gt;" class="s1" d="m52.3 99.3c-1.8-11.6 1.5-20.8 1.5-20.8 0 0 13.1 17.5 4.6 30.2 0 0-4.3 1.8-6.1-9.4z"/>
		<path id="&lt;Path&gt;" class="s1" d="m83 127.4c2.6-9.4 8.6-12.7 8.6-12.7 0 0 4.5 23.5-6.9 24.6 0 0-4.2-2.6-1.7-11.9z"/>
		<path id="&lt;Path&gt;" class="s1" d="m54.7 49.9c-3.5-9.1-0.6-15.3-0.6-15.3 0 0 17.5 16.3 8.9 23.9 0 0-4.9 0.4-8.3-8.6z"/>
	</g>
</svg>