<svg version="1.2" xmlns="http://www.w3.org/2000/svg" viewBox="0 0 180 550" width="180" height="550">
	<title>tree-left</title>
	<style>
		.s0 { fill: #414239 } 
		.s1 { fill: #4a77aa } 
		.s2 { fill: #3e6593 } 
	</style>
	<g id="&lt;Group&gt;">
		<g id="&lt;Group&gt;">
			<g id="&lt;Group&gt;">
				<path id="&lt;Path&gt;" class="s0" d="m91.1 548.9c0.2-27.7-8.3-54.4-12.4-81.6-3.7-24.6-4.7-49.6-5.1-74.5-0.4-22.6 0-45.3 1.7-67.9 3.5-45.4 12.8-90.6 33-131.7 0.4-0.8 3.3-1.1 3-0.5-11.3 23-19.3 47.4-24.7 72.4-9.5 44.8-10.9 90.8-9.8 136.4 0.7 25 2.1 50 6.5 74.6 4.4 23.9 11.1 47.5 10.8 72 0 0.9-3 1.4-3 0.8z"/>
			</g>
			<g id="&lt;Group&gt;">
				<path id="&lt;Path&gt;" class="s0" d="m91.1 523.5c16.6-13.5 29.4-32.2 32.8-53.6 0.2-1.2 3.3-1.7 3.1-0.4-3.4 21.8-16.5 40.9-33.4 54.6-0.8 0.7-3.9 0.5-2.5-0.6z"/>
			</g>
			<g id="&lt;Group&gt;">
				<path id="&lt;Path&gt;" class="s0" d="m31 440.6c1.7 8.3 4.7 16.2 8.9 23.6 6.4 11 15.1 19.6 25.3 27 8 5.8 16.1 11.4 24.3 16.9 0.4 0.2-2.2 1.5-2.9 1q-6.2-4.2-12.3-8.4c-9-6.2-18.4-12.3-25.9-20.2-10.2-10.9-17.5-24.4-20.5-39.1-0.1-0.7 2.9-1.4 3.1-0.8z"/>
			</g>
			<g id="&lt;Group&gt;">
				<path id="&lt;Path&gt;" class="s0" d="m78.2 290.6c3.2-12.2 1.5-24.7-0.6-36.9-1.8-10.2-3.5-20.4-4.1-30.8-0.5-9.9-0.3-19.7 0.8-29.5 2.1-20.4 7.7-40.3 16.2-58.9 0.5-1 3.5-1.3 3.1-0.4-4.9 10.5-8.8 21.5-11.6 32.8-5 19.8-6.8 40.4-5 60.8 1.7 20.6 9.7 41.9 4.3 62.5-0.3 1-3.4 1.5-3.1 0.4z"/>
			</g>
			<g id="&lt;Group&gt;">
				<path id="&lt;Path&gt;" class="s0" d="m74.7 432.1q8.8-15.8 16.7-32c18.4-38.1 32.9-78.1 43-119.2 0.2-0.8 3.2-1.3 3-0.6q-4.2 17.4-9.5 34.5c-12.6 40.5-29.5 79.7-50.1 116.8-0.5 0.8-3.3 0.9-3.1 0.5z"/>
			</g>
			<g id="&lt;Group&gt;">
				<path id="&lt;Path&gt;" class="s0" d="m61.9 491.7c-10.1-17.7-13-37.4-6.8-54.4 0.3-0.7 3.1 0 2.8 0.6-6.1 16.9-3.4 36.4 6.7 54.1 0.5 0.7-2.3 0.5-2.7-0.3z"/>
			</g>
			<g id="&lt;Group&gt;">
				<path id="&lt;Path&gt;" class="s0" d="m116.4 496.8c16.1-5.2 29.1-16.1 35.4-30.4 0.3-0.5 2.2 0.6 2 1.3-6.4 14.4-22 25.7-38.2 31-0.6 0.2 0.1-1.7 0.8-1.9z"/>
			</g>
		</g>
		<path id="&lt;Path&gt;" class="s1" d="m179 102.9q-0.1 33.8-0.2 67.6c-0.2 95-0.5 190.5-15.2 284.4-0.4 2.8-0.9 5.6-2.5 7.9-2 3.1-5.5 4.7-8.8 6.2q-14.9 6.9-29.8 13.7l-36.3-2.9c-17.6-6.4-34.5-15.1-50-25.6-8.8-6.1-17.4-13-22.9-22.2-5.4-9-7.4-19.7-8.9-30.1-14.4-103.5 17.2-207.3 48.3-307 9.9-31.7 19.8-63.4 31.5-94.5q25.7 13.9 50.4 29.3c16.7 10.4 34.1 22.6 40.8 41.1 3.6 10.2 3.7 21.3 3.6 32.1z"/>
		<path id="&lt;Path&gt;" class="s2" d="m179 102.9q-0.1 33.8-0.2 67.6c-0.2 95-0.5 190.5-15.2 284.4-0.4 2.8-0.9 5.6-2.5 7.9-2 3.1-5.5 4.7-8.8 6.2q-14.9 6.9-29.8 13.7l-36.3-2.9c-17.6-6.4-34.5-15.1-50-25.6-4.5-3.1-8.9-6.4-12.9-10.2q7.1 2.5 14.4 2.5c67.7 0 124.2-163.1 136.4-378.9q0.7 1.6 1.3 3.2c3.6 10.2 3.7 21.3 3.6 32.1z"/>
		<path id="&lt;Path&gt;" class="s2" d="m40.7 424c-7.5-2.1-11-8-11-8 0 0 16.6-6.4 19.7 5.5 0 0-1.2 4.5-8.7 2.5z"/>
		<g id="&lt;Group&gt;">
			<path id="&lt;Path&gt;" class="s2" d="m31.4 381.9c-4.1-4.8-4.3-11.2-4.3-11.2 0 0 13.2 1.2 10.7 12.5 0 0-2.4 3.3-6.4-1.3z"/>
			<path id="&lt;Path&gt;" class="s2" d="m89.9 316.9c2.9-8.1 8.7-12.2 8.7-12.2 0 0 3 17.3-7.8 21.1 0 0-3.8-1-0.9-8.9z"/>
			<path id="&lt;Path&gt;" class="s2" d="m94.5 210.3c0.2-10.7 5.1-19.1 5.1-19.1 0 0 10 16.4-0.8 27.9 0 0-4.6 1.7-4.3-8.8z"/>
			<path id="&lt;Path&gt;" class="s2" d="m63.7 175.3c-0.1-11.5 4.7-20.6 4.7-20.6 0 0 10.8 17.5 0.1 30 0 0-4.7 1.8-4.8-9.4z"/>
			<path id="&lt;Path&gt;" class="s2" d="m33.6 305.9c-3.2-7.1-1.9-14.9-1.9-14.9 0 0 13.6 5.8 8.4 18.6 0 0-3.4 3.2-6.5-3.7z"/>
			<path id="&lt;Path&gt;" class="s2" d="m132 226c6-8.8 13.2-10.9 13.2-10.9 0 0-3.6 23.5-15.6 22.7 0 0-3.4-3.2 2.4-11.8z"/>
			<path id="&lt;Path&gt;" class="s2" d="m124.9 308.6c6.2-6.9 12.9-7.7 12.9-7.7 0 0-5.3 20.3-16.1 17.9 0 0-2.8-3.4 3.2-10.2z"/>
			<path id="&lt;Path&gt;" class="s2" d="m81.4 408.4c0.4-7.5 4.5-12.7 4.5-12.7 0 0 7.5 12.9-1.2 19.6 0 0-3.7 0.5-3.3-6.9z"/>
			<path id="&lt;Path&gt;" class="s2" d="m107.6 349.6c5.2-5.7 11.1-6.3 11.1-6.3 0 0-3.7 16.8-13.5 14.7 0 0-2.7-2.8 2.4-8.4z"/>
			<path id="&lt;Path&gt;" class="s2" d="m141 84.8c3.4-6.9 8.8-9.5 8.8-9.5 0 0 0.7 16.6-8.9 18 0 0-3.2-1.7 0.1-8.5z"/>
			<path id="&lt;Path&gt;" class="s2" d="m21.7 338.5c-5-4.3-6.2-10.9-6.2-10.9 0 0 13.5-0.6 12.9 11.4 0 0-1.9 3.8-6.7-0.5z"/>
			<path id="&lt;Path&gt;" class="s2" d="m58.8 356.6c-0.7-7.3 2.6-13.4 2.6-13.4 0 0 9.8 10.3 1.9 19.1 0 0-3.7 1.4-4.5-5.7z"/>
			<path id="&lt;Path&gt;" class="s2" d="m97.7 99.4c0.4-13.5 6-24.3 6-24.3 0 0 11.1 20.5-1.1 35.3 0 0-5.2 2.2-4.9-11z"/>
			<path id="&lt;Path&gt;" class="s2" d="m114.4 264.5c7-3.2 12.4-0.1 12.4-0.1 0 0-10.5 17.2-18.2 8.4 0 0-1.2-5.1 5.8-8.3z"/>
			<path id="&lt;Path&gt;" class="s2" d="m110.1 140.9c4.9-11.1 12.2-14.8 12.2-14.8 0 0 0.3 27.4-12.7 28.7 0 0-4.3-3 0.5-13.9z"/>
			<path id="&lt;Path&gt;" class="s2" d="m137.7 177.8c3.7-11.3 10.7-17.6 10.7-17.6 0 0 3.4 23.1-9.7 29.5 0 0-4.6-0.8-1-11.9z"/>
			<path id="&lt;Path&gt;" class="s2" d="m54 295.8c1.8-8.7 7.1-13.7 7.1-13.7 0 0 5.5 17-5 22.5 0 0-4-0.3-2.1-8.8z"/>
			<path id="&lt;Path&gt;" class="s2" d="m69.1 250.8c1.8-9.7 7.3-15.3 7.3-15.3 0 0 6.1 19.4-4.9 25.3 0 0-4.2-0.5-2.4-10z"/>
			<path id="&lt;Path&gt;" class="s2" d="m37.3 247.5c-1.6-9.3 1.5-17.6 1.5-17.6 0 0 12.3 11.9 4.2 24.3 0 0-4.1 2.4-5.7-6.7z"/>
			<path id="&lt;Path&gt;" class="s2" d="m8.1 281.4c-1.8-8.7 1.1-16.5 1.1-16.5 0 0 12.1 11.2 4.5 22.8 0 0-3.8 2.3-5.6-6.3z"/>
		</g>
	</g>
</svg>