<svg version="1.2" xmlns="http://www.w3.org/2000/svg" viewBox="0 0 666 340" width="666" height="340">
	<title>&lt;Group&gt;</title>
	<style>
		.s0 { fill: #52767a } 
		.s1 { fill: #9dc7d1 } 
		.s2 { fill: #87b9c1 } 
		.s3 { fill: #72a5aa } 
		.s4 { fill: #7eb4b7 } 
		.s5 { fill: #6ca0a3 } 
		.s6 { fill: #afd5db } 
		.s7 { fill: #3a4b4c } 
		.s8 { fill: #ffffff } 
		.s9 { fill: #93c6c6 } 
		.s10 { fill: #bfd7db } 
		.s11 { fill: #4c3f40 } 
		.s12 { fill: #71a5aa } 
		.s13 { fill: #5c8f91 } 
	</style>
	<g id="&lt;Group&gt;">
		<g id="&lt;Group&gt;">
		</g>
		<g id="&lt;Group&gt;">
		</g>
		<path id="&lt;Path&gt;" class="s0" d="m369.2 0.3c66.3 0 120.1 53.8 120.1 120.1 0 66.4-53.8 120.2-120.1 120.2-66.4 0-120.1-53.8-120.1-120.2 0-66.3 53.7-120.1 120.1-120.1z"/>
		<path id="&lt;Path&gt;" class="s1" d="m411.4 336.2l-221.9-84.6c-53.3-44.8-116-107-181.6-174.3l655 249.5c-85.3 7.9-169.6 12.3-251.5 9.4z"/>
		<path id="&lt;Path&gt;" class="s2" d="m662.9 326.8c-69.3 6.4-137.8 10.5-205 10.2-47.1-103.4-277.7-156.4-325.6-136.5-38.9-36.5-81-78.7-124.4-123.2z"/>
		<path id="&lt;Path&gt;" class="s3" d="m267.3 54.2l221.9 84.5c51.9 48.4 112.5 116.2 175.7 189.7l-655-249.6c87.6-13.7 173.9-23.5 257.4-24.6z"/>
		<path id="&lt;Path&gt;" class="s4" d="m267.3 54.2l221.9 84.5c9.6 8.9 19.4 18.5 29.5 28.6-33.2 24.5-75 39.1-120.4 39.1-95.4 0-174.8-64.5-192.6-149.9 20.7-1.3 41.2-2.1 61.6-2.3z"/>
		<path id="&lt;Path&gt;" class="s5" d="m664.9 328.4l-655-249.6c42.1-6.6 83.9-12.3 125.2-16.5 37.1 50.3 100.2 97.2 178.8 127.5 90.3 34.7 180.1 39.4 244.1 18.4 34 36.3 70 77.2 106.9 120.2z"/>
		<g id="&lt;Group&gt;">
			<path id="&lt;Path&gt;" class="s3" d="m154.6 221.1c-44.9-40.8-94.9-90.7-146.7-143.8l88.5 33.7c12 41.2 32 78.4 58.2 110.1z"/>
			<path id="&lt;Path&gt;" class="s3" d="m555.8 286l107.1 40.8c-85.3 7.9-169.6 12.3-251.5 9.4l-15.1-5.8q6.7-0.1 13.5-0.5c52.4-3.3 102-18.9 146-43.9z"/>
		</g>
		<path id="&lt;Path&gt;" class="s6" d="m394.7 309.3c-7.9 3.9-31.3-4.9-45.9-18-11.8-10.7-8.7-16.6 2.2-15.3 8.8 1 21.9 6.6 31.7 13.4 11.3 7.8 17.9 16.9 12 19.9z"/>
		<path id="&lt;Path&gt;" class="s6" d="m334.5 291.4c-1.1 4.6-4.8 8.4-10.6 11.4l-134.4-51.2c-14.9-12.5-30.6-26.5-46.8-41.5 19.4 1.5 41.1 4.7 63.7 9.9 75.8 17.3 133.1 49.2 128.1 71.4z"/>
		<g id="&lt;Group&gt;">
			<path id="&lt;Path&gt;" class="s0" d="m104.7 114.5c9.7 44.9 27.7 86.5 66 121-11.8-10.4-24-21.6-36.6-33.3-18.2-27.5-31-58.2-37-90.9z"/>
			<path id="&lt;Path&gt;" class="s0" d="m562.2 288.4c-45.3 27-99.4 43.3-157.7 45.1l-4.9-3.2c57.3-1.1 106.4-18.3 151.6-46z"/>
			<path id="&lt;Path&gt;" class="s0" d="m321.3 301.8l-7.5-2.9c34.1 2.2 71.8-22.5 105.2-65l12.8 6.3c-32.2 40-76.5 60-110.5 61.6z"/>
			<path id="&lt;Path&gt;" class="s0" d="m278.8 285.6l-10.9-4.1c-25.2-24.1-51.9-73-55.1-127l17.5 7.5c3.9 57.1 20.6 102.2 48.5 123.6z"/>
		</g>
		<path id="&lt;Path&gt;" class="s7" d="m40.9 110.9q-16.3-16.5-33-33.6l655 249.5c-15.1 1.4-30.2 2.7-45.3 3.8-199.4-85-392.3-159.3-576.7-219.7z"/>
		<path id="&lt;Path&gt;" class="s1" d="m656.4 332.7l-651.7-248.2q-1.3-0.5-2.3-1.5l-0.2-0.3c-4.8-4.9 0.4-12.9 6.9-10.5l652.2 248.5c6.4 2.4 5.1 11.9-1.7 12.4q-0.2 0-0.3 0c-1 0.1-2 0-2.9-0.4z"/>
		<path id="&lt;Path&gt;" class="s8" d="m212.5 271.1c-7.2-6.1-14.7-12.7-22.4-19.6l227.8 86.8c-10.2-0.1-20.5-0.3-30.6-0.6z"/>
		<path id="&lt;Path&gt;" class="s7" d="m181.9 249c-3.1-2.6-3-5.9-6.1-8.6l254.4 96.5c-4.2-0.1-7.3 2.5-11.4 2.4z"/>
		<path id="&lt;Path&gt;" class="s2" d="m380.3 82c-37.7 0-71.1-18.3-91.9-46.4 20.5-19.6 48.3-31.7 78.9-31.7 37.7 0 71.1 18.3 91.9 46.4-20.5 19.6-48.3 31.7-78.9 31.7z"/>
		<path id="&lt;Path&gt;" class="s9" d="m442.7 158.2c-13.6 9.2-58.4-1.2-88.3-21.7-24-16.4-19.9-28 0.4-28.4 16.3-0.3 41.5 6.7 61.1 16.8 22.5 11.5 36.8 26.5 26.8 33.3z"/>
		<path id="&lt;Path&gt;" class="s10" d="m267.3 54.2l221.9 84.5c4.6 4.3 9.3 8.8 14 13.4l-255.8-97.5q10-0.3 19.9-0.4z"/>
		<path id="&lt;Path&gt;" class="s11" d="m524 225.3c-8 1.1-21.9-9.2-31.2-23.1-9.3-13.9-10.3-26-2.3-27.1 7.9-1.1 21.9 9.2 31.2 23.1 9.3 13.8 10.3 26 2.3 27.1z"/>
		<path id="&lt;Path&gt;" class="s10" d="m520.1 216.1c-6.1 0.9-16.8-7-23.9-17.6-7.1-10.6-7.9-19.9-1.8-20.8 6.1-0.8 16.8 7.1 23.9 17.7 7.1 10.6 7.9 19.9 1.8 20.7z"/>
		<path id="&lt;Path&gt;" class="s11" d="m178.9 65.3c16.3-3.6 33.5-1.4 38.5 4.9 5 6.3-4.1 14.3-20.4 18-16.2 3.6-33.4 1.4-38.4-4.9-5-6.3 4.1-14.4 20.3-18z"/>
		<path id="&lt;Path&gt;" class="s11" d="m411.7 167.8c-4.2 9.5-14.1 13.9-22.1 9.7-8.1-4.1-11.3-15.1-7.1-24.6 4.1-9.5 14-13.9 22.1-9.8 8.1 4.2 11.2 15.2 7.1 24.7z"/>
		<path id="&lt;Path&gt;" class="s11" d="m301.4 126.1c-9.3 6.5-23.4 8.5-31.5 4.4-8-4.1-7-12.8 2.3-19.4 9.3-6.5 23.5-8.5 31.5-4.4 8.1 4.1 7.1 12.8-2.3 19.4z"/>
		<path id="&lt;Path&gt;" class="s12" d="m480.3 120.1c-20-2.6-34.8-17.7-33.5-34.7 0.7-10.2 7.1-18.8 16.4-24 12.2 16.3 18.8 36.9 17.1 58.7z"/>
		<path id="&lt;Path&gt;" class="s10" d="m366.9 7.7c13.1 0 25.7 2.6 37.1 7.4-16.4 13-37.1 20.7-59.7 20.7-13.2 0-25.7-2.6-37.1-7.4 16.4-13 37.1-20.7 59.7-20.7z"/>
		<path id="&lt;Path&gt;" class="s10" d="m413 20.1c2.9 0.7 5.3 2.7 7.2 5.9-5.2 6.1-10.6 9.2-15.5 8-2.9-0.6-5.3-2.6-7.2-5.8 5.1-6.1 10.6-9.2 15.5-8.1z"/>
		<path id="&lt;Path&gt;" class="s10" d="m409 163.9c-3.2 7.4-10.9 10.8-17.2 7.6-6.3-3.2-8.7-11.8-5.5-19.1 3.2-7.4 10.9-10.8 17.1-7.6 6.3 3.2 8.8 11.8 5.6 19.1z"/>
		<path id="&lt;Path&gt;" class="s10" d="m298.3 122.3c-7.3 5.1-18.4 6.7-24.7 3.4-6.3-3.2-5.5-10 1.8-15.1 7.3-5.2 18.3-6.7 24.7-3.5 6.3 3.2 5.5 10-1.8 15.2z"/>
		<path id="&lt;Path&gt;" class="s10" d="m183 65.1c12.4-2.8 25.4-1.1 29.2 3.7 3.8 4.8-3.1 10.9-15.4 13.6-12.4 2.8-25.5 1.1-29.2-3.7-3.8-4.8 3.1-10.9 15.4-13.6z"/>
		<path id="&lt;Path&gt;" class="s10" d="m228 155.6l272.6 103.9q-12.2 2.2-25.4 4.2l-276.5-105.3q14.2-1.6 29.3-2.8z"/>
		<path id="&lt;Path&gt;" class="s13" d="m417.8 228l161.8 61.6c-6.4 2-13.5 4-21.4 5.7l-170.6-65c9.6-1 19.7-1.8 30.2-2.3z"/>
		<path id="&lt;Path&gt;" class="s4" d="m119.8 114.4l111 42.3q-10.4 3-21.6 5.7l-110-41.9c6.6-2.1 13.4-4.1 20.6-6.1z"/>
	</g>
</svg>